<mxfile host="Electron" modified="2023-04-13T07:51:52.245Z" agent="Mozilla/5.0 (Macintosh; Intel Mac OS X 10_15_7) AppleWebKit/537.36 (KHTML, like Gecko) draw.io/21.1.2 Chrome/106.0.5249.199 Electron/21.4.3 Safari/537.36" etag="CyrI3_Whs5or8Fnk-X7t" version="21.1.2" type="device">
  <diagram id="DWjpSvbVxY2pOprUcE6g" name="Page-1">
    <mxGraphModel dx="1242" dy="1278" grid="0" gridSize="10" guides="1" tooltips="1" connect="1" arrows="1" fold="1" page="0" pageScale="1" pageWidth="827" pageHeight="1169" math="0" shadow="0">
      <root>
        <mxCell id="0" />
        <mxCell id="1" parent="0" />
        <mxCell id="258" value="&lt;b&gt;Fullfillment&lt;/b&gt;&lt;br&gt;[Domain]" style="rounded=1;whiteSpace=wrap;html=1;verticalAlign=bottom;fontStyle=0;arcSize=6;sketch=1;" parent="1" vertex="1">
          <mxGeometry x="153" y="53" width="1951" height="551" as="geometry" />
        </mxCell>
        <mxCell id="323" value="&lt;b&gt;shelf_warmers&lt;/b&gt;&lt;br&gt;[Data Product]" style="shape=hexagon;perimeter=hexagonPerimeter2;whiteSpace=wrap;html=1;fixedSize=1;rounded=0;glass=0;fontFamily=Helvetica;fontSize=12;size=163.05882352941194;verticalAlign=bottom;fillColor=#FCFCFC;fontColor=#333333;strokeColor=#666666;sketch=1;" parent="1" vertex="1">
          <mxGeometry x="1326.5" y="96" width="758" height="449" as="geometry" />
        </mxCell>
        <mxCell id="322" value="&lt;b&gt;stock_updated&lt;/b&gt;&lt;br&gt;[Raw Data Product]" style="shape=hexagon;perimeter=hexagonPerimeter2;whiteSpace=wrap;html=1;fixedSize=1;rounded=0;glass=0;fontFamily=Helvetica;fontSize=12;size=163.05882352941194;verticalAlign=bottom;fillColor=#FCFCFC;fontColor=#333333;strokeColor=#666666;sketch=1;" parent="1" vertex="1">
          <mxGeometry x="543" y="95" width="740" height="449" as="geometry" />
        </mxCell>
        <mxCell id="263" style="edgeStyle=orthogonalEdgeStyle;rounded=0;orthogonalLoop=1;jettySize=auto;html=1;entryX=0;entryY=0.5;entryDx=0;entryDy=0;startArrow=classic;startFill=1;endArrow=none;endFill=0;sketch=1;" parent="1" source="260" target="262" edge="1">
          <mxGeometry relative="1" as="geometry" />
        </mxCell>
        <mxCell id="284" value="poll" style="edgeLabel;html=1;align=center;verticalAlign=middle;resizable=0;points=[];fontSize=11;fontFamily=Helvetica;sketch=1;" parent="263" vertex="1" connectable="0">
          <mxGeometry x="0.5952" y="3" relative="1" as="geometry">
            <mxPoint x="-7" y="-6" as="offset" />
          </mxGeometry>
        </mxCell>
        <mxCell id="260" value="" style="shape=cylinder3;whiteSpace=wrap;html=1;boundedLbl=1;backgroundOutline=1;size=15;rotation=-90;fillColor=#d5e8d4;strokeColor=#82b366;sketch=1;" parent="1" vertex="1">
          <mxGeometry x="403" y="230" width="60" height="153" as="geometry" />
        </mxCell>
        <mxCell id="261" value="&lt;b&gt;stock&lt;/b&gt;&lt;br&gt;[Kafka Topic]" style="text;html=1;strokeColor=none;fillColor=none;align=center;verticalAlign=middle;whiteSpace=wrap;rounded=0;sketch=1;" parent="1" vertex="1">
          <mxGeometry x="386.25" y="291.5" width="98" height="30" as="geometry" />
        </mxCell>
        <mxCell id="265" style="rounded=0;orthogonalLoop=1;jettySize=auto;html=1;entryX=0;entryY=0.5;entryDx=0;entryDy=0;sketch=1;" parent="1" source="262" target="273" edge="1">
          <mxGeometry relative="1" as="geometry">
            <mxPoint x="834.1199999999999" y="306.5" as="targetPoint" />
          </mxGeometry>
        </mxCell>
        <mxCell id="283" value="store" style="edgeLabel;html=1;align=center;verticalAlign=middle;resizable=0;points=[];fontSize=11;fontFamily=Helvetica;sketch=1;" parent="265" vertex="1" connectable="0">
          <mxGeometry x="0.0516" y="4" relative="1" as="geometry">
            <mxPoint x="-2" y="-5" as="offset" />
          </mxGeometry>
        </mxCell>
        <mxCell id="262" value="&lt;b&gt;Topic to BigQuery&lt;br&gt;&lt;/b&gt;[Google BigQuery Sink Connector for Confluent]" style="rounded=1;whiteSpace=wrap;html=1;fillColor=#fff2cc;strokeColor=#d6b656;sketch=1;" parent="1" vertex="1">
          <mxGeometry x="610" y="276.5" width="160" height="60" as="geometry" />
        </mxCell>
        <mxCell id="269" style="edgeStyle=orthogonalEdgeStyle;rounded=0;orthogonalLoop=1;jettySize=auto;html=1;sketch=1;" parent="1" source="268" target="260" edge="1">
          <mxGeometry relative="1" as="geometry" />
        </mxCell>
        <mxCell id="268" value="&lt;b style=&quot;font-size: 12px;&quot;&gt;Stock Service&lt;br style=&quot;font-size: 12px;&quot;&gt;&lt;/b&gt;[Spring Boot]" style="rounded=1;whiteSpace=wrap;html=1;verticalAlign=middle;fontSize=12;fillColor=#E0E0E0;fontColor=#333333;strokeColor=#666666;sketch=1;" parent="1" vertex="1">
          <mxGeometry x="182" y="273" width="128" height="67" as="geometry" />
        </mxCell>
        <mxCell id="273" value="&lt;font face=&quot;Helvetica&quot; style=&quot;font-size: 12px;&quot;&gt;&lt;b style=&quot;font-size: 12px;&quot;&gt;stock&lt;br style=&quot;font-size: 12px;&quot;&gt;&lt;/b&gt;[GCP BigQuery Table in authorized dataset]&lt;/font&gt;" style="rounded=1;whiteSpace=wrap;html=1;fontFamily=Courier New;fontSize=12;fillColor=#dae8fc;strokeColor=#6c8ebf;sketch=1;" parent="1" vertex="1">
          <mxGeometry x="1078" y="276.5" width="160" height="60" as="geometry" />
        </mxCell>
        <mxCell id="275" value="&lt;b&gt;Discovery API&lt;br&gt;&lt;/b&gt;[GCP Cloud Functions Endpoint]" style="rounded=1;whiteSpace=wrap;html=1;fillColor=#ffe6cc;strokeColor=#d79b00;sketch=1;" parent="1" vertex="1">
          <mxGeometry x="834.12" y="113" width="160" height="60" as="geometry" />
        </mxCell>
        <mxCell id="277" style="edgeStyle=orthogonalEdgeStyle;rounded=0;orthogonalLoop=1;jettySize=auto;html=1;entryX=0.5;entryY=0;entryDx=0;entryDy=0;fontFamily=Helvetica;fontSize=11;dashed=1;sketch=1;" parent="1" target="275" edge="1">
          <mxGeometry relative="1" as="geometry">
            <mxPoint x="913" y="-39" as="sourcePoint" />
          </mxGeometry>
        </mxCell>
        <mxCell id="278" value="GET https://example.com/datamesh/fulfillment/stock/" style="edgeLabel;html=1;align=center;verticalAlign=middle;resizable=0;points=[];fontSize=11;fontFamily=Helvetica;sketch=1;" parent="277" vertex="1" connectable="0">
          <mxGeometry x="-0.4096" relative="1" as="geometry">
            <mxPoint as="offset" />
          </mxGeometry>
        </mxCell>
        <mxCell id="276" value="&lt;b&gt;Data Product Inventory&lt;br&gt;&lt;/b&gt;[Custom Web App]" style="rounded=1;whiteSpace=wrap;html=1;fontFamily=Helvetica;fontSize=11;sketch=1;fillColor=#f5f5f5;fontColor=#333333;strokeColor=#666666;" parent="1" vertex="1">
          <mxGeometry x="751" y="-100" width="1147" height="60" as="geometry" />
        </mxCell>
        <UserObject label="&lt;b&gt;stock.bigquery.json&lt;/b&gt;&lt;br&gt;[BigQuery Schema]" link="https://github.com/datamesh-architecture/terraform-dataproduct-examples/blob/main/shelf_warmers/dataproduct-confluent-kafka-to-gcp-bigquery/schema/stock.bigquery.json" linkTarget="_blank" id="279">
          <mxCell style="rounded=1;whiteSpace=wrap;html=1;fillColor=#d5e8d4;strokeColor=#82b366;sketch=1;" parent="1" vertex="1">
            <mxGeometry x="370.75" y="371" width="129" height="60" as="geometry" />
          </mxCell>
        </UserObject>
        <mxCell id="297" value="&lt;b&gt;Discovery API&lt;br&gt;&lt;/b&gt;[GCP Cloud Functions Endpoint]" style="rounded=1;whiteSpace=wrap;html=1;fillColor=#ffe6cc;strokeColor=#d79b00;sketch=1;" parent="1" vertex="1">
          <mxGeometry x="1625.5" y="116" width="160" height="60" as="geometry" />
        </mxCell>
        <mxCell id="299" style="rounded=0;orthogonalLoop=1;jettySize=auto;html=1;entryX=1;entryY=0.5;entryDx=0;entryDy=0;fontFamily=Helvetica;fontSize=11;startArrow=none;startFill=0;endArrow=classic;endFill=1;dashed=1;exitX=0;exitY=0.5;exitDx=0;exitDy=0;sketch=1;" parent="1" source="301" target="273" edge="1">
          <mxGeometry relative="1" as="geometry">
            <Array as="points" />
            <mxPoint x="1427.5" y="307.5" as="sourcePoint" />
          </mxGeometry>
        </mxCell>
        <mxCell id="300" value="use" style="edgeLabel;html=1;align=center;verticalAlign=middle;resizable=0;points=[];fontSize=11;fontFamily=Helvetica;sketch=1;" parent="299" vertex="1" connectable="0">
          <mxGeometry x="-0.4701" y="1" relative="1" as="geometry">
            <mxPoint x="5" y="-11" as="offset" />
          </mxGeometry>
        </mxCell>
        <mxCell id="301" value="&lt;font face=&quot;Helvetica&quot; style=&quot;font-size: 12px;&quot;&gt;&lt;b style=&quot;font-size: 12px;&quot;&gt;shelf_warmers&lt;br style=&quot;font-size: 12px;&quot;&gt;&lt;/b&gt;[GCP BigQuery View in Authorzied Dataset]&lt;/font&gt;" style="rounded=1;whiteSpace=wrap;html=1;fontFamily=Courier New;fontSize=12;fillColor=#dae8fc;strokeColor=#6c8ebf;sketch=1;" parent="1" vertex="1">
          <mxGeometry x="1872.5" y="277.5" width="160" height="60" as="geometry" />
        </mxCell>
        <mxCell id="307" style="edgeStyle=orthogonalEdgeStyle;rounded=0;orthogonalLoop=1;jettySize=auto;html=1;entryX=0.5;entryY=0;entryDx=0;entryDy=0;fontFamily=Helvetica;fontSize=11;dashed=1;sketch=1;" parent="1" target="297" edge="1">
          <mxGeometry relative="1" as="geometry">
            <mxPoint x="1705.5" y="-40" as="sourcePoint" />
            <mxPoint x="744.0000000000005" y="160" as="targetPoint" />
          </mxGeometry>
        </mxCell>
        <mxCell id="308" value="GET https://example.com/datamesh/fulfillment/shelf_warmers/" style="edgeLabel;html=1;align=center;verticalAlign=middle;resizable=0;points=[];fontSize=11;fontFamily=Helvetica;sketch=1;" parent="307" vertex="1" connectable="0">
          <mxGeometry x="-0.4096" relative="1" as="geometry">
            <mxPoint y="4" as="offset" />
          </mxGeometry>
        </mxCell>
        <mxCell id="309" value="&lt;font face=&quot;Helvetica&quot;&gt;&lt;b&gt;Access Control&lt;br&gt;&lt;/b&gt;[GCP IAM Policy]&lt;/font&gt;" style="rounded=1;whiteSpace=wrap;html=1;fontFamily=Courier New;fontSize=11;fillColor=#f8cecc;strokeColor=#b85450;sketch=1;" parent="1" vertex="1">
          <mxGeometry x="832" y="445" width="160" height="60" as="geometry" />
        </mxCell>
        <mxCell id="312" value="&lt;font face=&quot;Helvetica&quot;&gt;&lt;b&gt;Access Control&lt;br&gt;&lt;/b&gt;[GCP IAM Policy]&lt;/font&gt;" style="rounded=1;whiteSpace=wrap;html=1;fontFamily=Courier New;fontSize=11;fillColor=#f8cecc;strokeColor=#b85450;sketch=1;" parent="1" vertex="1">
          <mxGeometry x="1625.5" y="446" width="160" height="60" as="geometry" />
        </mxCell>
        <mxCell id="326" value="https://github.com/datamesh-architecture/terraform-dataproduct-confluent-kafka-to-gcp-s3" style="text;html=1;strokeColor=none;fillColor=none;align=center;verticalAlign=middle;whiteSpace=wrap;rounded=0;glass=0;fontFamily=Helvetica;fontSize=9;sketch=1;" parent="1" vertex="1">
          <mxGeometry x="704.62" y="537" width="419" height="30" as="geometry" />
        </mxCell>
        <mxCell id="327" value="https://github.com/datamesh-architecture/terraform-dataproduct-gcp-bigquery-transform" style="text;html=1;strokeColor=none;fillColor=none;align=center;verticalAlign=middle;whiteSpace=wrap;rounded=0;glass=0;fontFamily=Helvetica;fontSize=9;sketch=1;" parent="1" vertex="1">
          <mxGeometry x="1504" y="540" width="419" height="30" as="geometry" />
        </mxCell>
        <mxCell id="328" value="Terraform Module" style="text;html=1;strokeColor=none;fillColor=none;align=center;verticalAlign=middle;whiteSpace=wrap;rounded=0;glass=0;fontFamily=Helvetica;fontSize=9;sketch=1;" parent="1" vertex="1">
          <mxGeometry x="702" y="97" width="60" height="30" as="geometry" />
        </mxCell>
        <mxCell id="329" value="Terraform Module" style="text;html=1;strokeColor=none;fillColor=none;align=center;verticalAlign=middle;whiteSpace=wrap;rounded=0;glass=0;fontFamily=Helvetica;fontSize=9;sketch=1;" parent="1" vertex="1">
          <mxGeometry x="1487.5" y="100" width="60" height="30" as="geometry" />
        </mxCell>
        <mxCell id="332" value="" style="edgeStyle=orthogonalEdgeStyle;rounded=0;orthogonalLoop=1;jettySize=auto;html=1;fontFamily=Helvetica;fontSize=11;dashed=1;startArrow=classic;startFill=1;endArrow=none;endFill=0;entryX=0.5;entryY=1;entryDx=0;entryDy=0;sketch=1;" parent="1" source="279" target="273" edge="1">
          <mxGeometry relative="1" as="geometry">
            <mxPoint x="499.75" y="401" as="sourcePoint" />
            <mxPoint x="1280.4705882352941" y="336.5" as="targetPoint" />
          </mxGeometry>
        </mxCell>
        <mxCell id="333" value="use schema to define table" style="edgeLabel;html=1;align=center;verticalAlign=middle;resizable=0;points=[];fontSize=11;fontFamily=Helvetica;sketch=1;" parent="332" vertex="1" connectable="0">
          <mxGeometry x="-0.2437" relative="1" as="geometry">
            <mxPoint x="2" y="-11" as="offset" />
          </mxGeometry>
        </mxCell>
        <mxCell id="364" style="edgeStyle=none;rounded=0;orthogonalLoop=1;jettySize=auto;html=1;entryX=1;entryY=0.75;entryDx=0;entryDy=0;dashed=1;strokeWidth=2;fontFamily=Helvetica;fontSize=12;startArrow=classic;startFill=1;endArrow=classic;endFill=1;sketch=1;" parent="1" source="273" target="273" edge="1">
          <mxGeometry relative="1" as="geometry" />
        </mxCell>
        <mxCell id="367" value="datamesh-architecture.com" style="text;html=1;strokeColor=none;fillColor=none;align=right;verticalAlign=middle;whiteSpace=wrap;rounded=0;sketch=1;fillStyle=hachure;fontFamily=Architects Daughter;fontSource=https%3A%2F%2Ffonts.googleapis.com%2Fcss%3Ffamily%3DArchitects%2BDaughter;fontSize=12;fontColor=#000000;" parent="1" vertex="1">
          <mxGeometry x="1817.5" y="608" width="270" height="30" as="geometry" />
        </mxCell>
      </root>
    </mxGraphModel>
  </diagram>
</mxfile>
